<svg xmlns="http://www.w3.org/2000/svg" viewBox="0 0 69.8 59.8">
  <path fill="#9d9d9d" d="M25 29.3v2c0 .6.4 1 1 1s1-.4 1-1v-2c0-.6-.4-1-1-1s-1 .4-1 1zM43 31.2v-2c0-.6-.4-1-1-1s-1 .4-1 1v2c0 .6.4 1 1 1 .6.1 1-.4 1-1zM39 6.3c.6 0 1-.4 1-1v-2c0-.6-.4-1-1-1s-1 .4-1 1v2c0 .5.4 1 1 1zM31 33.2v-2c0-.6-.4-1-1-1s-1 .4-1 1v2c0 .6.4 1 1 1 .6.1 1-.4 1-1zM38 34.3c.6 0 1-.4 1-1v-2c0-.6-.4-1-1-1s-1 .4-1 1v2c0 .5.4 1 1 1zM33 29.3v2c0 .6.4 1 1 1s1-.4 1-1v-2c0-.6-.4-1-1-1s-1 .4-1 1zM50 21.3c0-2.8-1.9-5.1-4.4-5.8-.2-.5-.4-.9-.7-1.3 0-.3.1-.6.1-.9 0-3.3-2.7-6-6-6-1.5 0-2.9.6-4 1.5-1.4-1-3.2-1.5-5-1.5-4.9 0-8.9 3.9-9 8.8-1.8 1-3 3-3 5.2 0 3.3 2.7 6 6 6h20c3.3 0 6-2.7 6-6zm-11-12c1.8 0 3.4 1.2 3.9 2.9-1-.6-2.1-.9-3.4-.9-.6 0-1.3.1-1.8.3-.3-.5-.7-1-1.1-1.4.6-.6 1.5-.9 2.4-.9zm-15 16c-2.2 0-4-1.8-4-4 0-1.9 1.3-3.5 3.1-3.9-.1-.4-.1-.8-.1-1.1 0-3.9 3.1-7 7-7 3.2 0 5.8 2.1 6.7 5 .8-.6 1.7-1 2.8-1 2.3 0 4.2 1.8 4.5 4 2.2 0 4 1.8 4 4s-1.8 4-4 4H24zM45.4 8.3l1.4-1.4c.4-.4.4-1 0-1.4-.4-.4-1-.4-1.4 0L44 6.9c-.4.4-.4 1 0 1.4.3.4 1 .4 1.4 0z" class="st0"/>
  <path fill="#9d9d9d" d="M46.8 13.3c0 .6.4 1 1 1h2c.6 0 1-.4 1-1s-.4-1-1-1h-2c-.6 0-1 .4-1 1zM14.3 44c-.3 0-.7-.2-1.1-.4l-.7.8c.5.4 1.1.7 1.7.7 1.1 0 1.8-.7 1.8-1.5 0-.6-.3-1-.9-1.2l-.6-.2c-.4-.2-.7-.2-.7-.5 0-.2.2-.3.5-.3s.6.1.9.3l.6-.8c-.4-.4-1-.6-1.5-.6-1 0-1.7.6-1.7 1.4 0 .7.4 1.1.9 1.3l.6.2c.4.2.6.2.6.4.1.3 0 .4-.4.4zM19.8 44H18v-.8h1.5v-1H18v-.8h1.7v-1h-2.9V45h3zM21.9 40.4h-1.2V45h2.9v-1h-1.7zM25.6 43.2h1.5v-1h-1.5v-.8h1.7v-1h-2.9V45h3v-1h-1.8zM28.1 42.7c0 1.6 1 2.3 2.2 2.3.6 0 1.1-.2 1.5-.7l-.6-.8c-.2.2-.5.4-.8.4-.6 0-1-.5-1-1.3s.5-1.3 1-1.3c.3 0 .5.1.8.3l.6-.8c-.3-.3-.8-.6-1.4-.6-1.3.2-2.3 1-2.3 2.5zM33.2 45h1.2v-3.6h1.2v-1H32v1h1.2zM38.5 40.4L37.1 45h1.2l.2-1h1.3l.2 1h1.3l-1.4-4.6h-1.4zm.2 2.7l.1-.3c.1-.4.2-1 .3-1.4.1.5.2 1 .3 1.4l.1.3h-.8zM45 45.1c.6 0 1.1-.2 1.5-.7l-.6-.8c-.2.2-.5.4-.8.4-.6 0-1-.5-1-1.3s.5-1.3 1-1.3c.3 0 .5.1.8.3l.6-.8c-.3-.3-.8-.6-1.4-.6-1.1 0-2.2.9-2.2 2.4 0 1.6 1 2.4 2.1 2.4zM47.2 40.4h1.2V45h-1.2zM49 41.4h1.2V45h1.2v-3.5h1.2v-.9l1.3 2.9V45h1.2v-1.6l1.4-3h-1.3l-.3 1c-.1.3-.2.7-.4 1-.1-.4-.2-.7-.3-1l-.3-1H49v1zM13.8 51.4H15V55h1.2v-3.6h1.2v-1h-3.6zM19.8 50.4c-1.3 0-2.1.8-2.1 2.3 0 1.5.9 2.4 2.1 2.4s2.1-.9 2.1-2.4-.9-2.3-2.1-2.3zm0 3.6c-.5 0-.9-.5-.9-1.3s.3-1.3.9-1.3.9.5.9 1.3-.4 1.3-.9 1.3zM24.1 55h1.2v-1.7h1.5v-1h-1.5v-.9h1.8v-1h-3zM29.7 50.4c-1.3 0-2.1.8-2.1 2.3 0 1.5.9 2.4 2.1 2.4s2.1-.9 2.1-2.4-.8-2.3-2.1-2.3zm0 3.6c-.5 0-.9-.5-.9-1.3s.3-1.3.9-1.3.9.5.9 1.3-.3 1.3-.9 1.3zM36.2 51.9c0-1.1-.8-1.5-1.8-1.5h-1.7V55h1.2v-1.5h.5l.8 1.5h1.3l-1-1.8c.4-.2.7-.6.7-1.3zm-2.4-.5h.4c.5 0 .7.1.7.5s-.3.6-.7.6h-.4v-1.1zM38.2 53.2h1.5v-1h-1.5v-.8H40v-1h-3V55h3.1v-1h-1.9zM43 54c-.6 0-1-.5-1-1.3s.5-1.3 1-1.3c.3 0 .5.1.8.3l.6-.8c-.3-.3-.8-.6-1.4-.6-1.1 0-2.2.9-2.2 2.4 0 1.6 1 2.3 2.2 2.3.6 0 1.1-.2 1.5-.7l-.6-.8c-.3.4-.6.5-.9.5zM45.9 50.4L44.5 55h1.2l.2-1h1.3l.2 1h1.3l-1.4-4.6h-1.4zm.2 2.7l.1-.3c.1-.4.2-1 .3-1.4.1.5.2 1 .3 1.4l.1.3h-.8zM51.5 52.4l-.6-.2c-.4-.2-.7-.2-.7-.5 0-.2.2-.3.5-.3s.6.1.9.3l.6-.8c-.4-.4-1-.6-1.5-.6-1 0-1.7.6-1.7 1.4 0 .7.4 1.1.9 1.3l.6.2c.4.2.6.2.6.4s-.2.3-.5.3-.7-.2-1.1-.4l-.7.8c.5.4 1.1.7 1.7.7 1.1 0 1.8-.7 1.8-1.5 0-.5-.3-.9-.8-1.1zM52.6 51.4h1.2V55H55v-3.6h1.2v-1h-3.6z" class="st0"/>
</svg>